<?xml version="1.0" standalone="no"?>
<svg xmlns:xlink="http://www.w3.org/1999/xlink" id="wave" style="transform:rotate(180deg); transition: 0.3s" viewBox="0 0 1440 460" version="1.1" xmlns="http://www.w3.org/2000/svg"><defs><linearGradient id="sw-gradient-0" x1="0" x2="0" y1="1" y2="0"><stop stop-color="rgba(53.389, 194.352, 169.996, 1)" offset="0%"/><stop stop-color="rgba(11, 156.628, 255, 1)" offset="100%"/></linearGradient></defs><path style="transform:translate(0, 0px); opacity:1" fill="url(#sw-gradient-0)" d="M0,46L60,99.7C120,153,240,261,360,268.3C480,276,600,184,720,130.3C840,77,960,61,1080,76.7C1200,92,1320,138,1440,130.3C1560,123,1680,61,1800,30.7C1920,0,2040,0,2160,38.3C2280,77,2400,153,2520,176.3C2640,199,2760,169,2880,138C3000,107,3120,77,3240,61.3C3360,46,3480,46,3600,76.7C3720,107,3840,169,3960,222.3C4080,276,4200,322,4320,345C4440,368,4560,368,4680,329.7C4800,291,4920,215,5040,168.7C5160,123,5280,107,5400,145.7C5520,184,5640,276,5760,276C5880,276,6000,184,6120,184C6240,184,6360,276,6480,260.7C6600,245,6720,123,6840,92C6960,61,7080,123,7200,191.7C7320,261,7440,337,7560,329.7C7680,322,7800,230,7920,214.7C8040,199,8160,261,8280,291.3C8400,322,8520,322,8580,322L8640,322L8640,460L8580,460C8520,460,8400,460,8280,460C8160,460,8040,460,7920,460C7800,460,7680,460,7560,460C7440,460,7320,460,7200,460C7080,460,6960,460,6840,460C6720,460,6600,460,6480,460C6360,460,6240,460,6120,460C6000,460,5880,460,5760,460C5640,460,5520,460,5400,460C5280,460,5160,460,5040,460C4920,460,4800,460,4680,460C4560,460,4440,460,4320,460C4200,460,4080,460,3960,460C3840,460,3720,460,3600,460C3480,460,3360,460,3240,460C3120,460,3000,460,2880,460C2760,460,2640,460,2520,460C2400,460,2280,460,2160,460C2040,460,1920,460,1800,460C1680,460,1560,460,1440,460C1320,460,1200,460,1080,460C960,460,840,460,720,460C600,460,480,460,360,460C240,460,120,460,60,460L0,460Z"/></svg>