<?xml version="1.0" standalone="no"?>
<svg xmlns:xlink="http://www.w3.org/1999/xlink" id="wave" style="transform:rotate(180deg); transition: 0.3s" viewBox="0 0 1440 460" version="1.1" xmlns="http://www.w3.org/2000/svg"><defs><linearGradient id="sw-gradient-0" x1="0" x2="0" y1="1" y2="0"><stop stop-color="rgba(53.389, 194.352, 169.996, 1)" offset="0%"/><stop stop-color="rgba(11, 156.628, 255, 1)" offset="100%"/></linearGradient></defs><path style="transform:translate(0, 0px); opacity:1" fill="url(#sw-gradient-0)" d="M0,138L60,161C120,184,240,230,360,230C480,230,600,184,720,138C840,92,960,46,1080,46C1200,46,1320,92,1440,122.7C1560,153,1680,169,1800,191.7C1920,215,2040,245,2160,253C2280,261,2400,245,2520,222.3C2640,199,2760,169,2880,199.3C3000,230,3120,322,3240,329.7C3360,337,3480,261,3600,245.3C3720,230,3840,276,3960,291.3C4080,307,4200,291,4320,268.3C4440,245,4560,215,4680,191.7C4800,169,4920,153,5040,138C5160,123,5280,107,5400,92C5520,77,5640,61,5760,115C5880,169,6000,291,6120,345C6240,399,6360,383,6480,337.3C6600,291,6720,215,6840,222.3C6960,230,7080,322,7200,368C7320,414,7440,414,7560,406.3C7680,399,7800,383,7920,314.3C8040,245,8160,123,8280,130.3C8400,138,8520,276,8580,345L8640,414L8640,460L8580,460C8520,460,8400,460,8280,460C8160,460,8040,460,7920,460C7800,460,7680,460,7560,460C7440,460,7320,460,7200,460C7080,460,6960,460,6840,460C6720,460,6600,460,6480,460C6360,460,6240,460,6120,460C6000,460,5880,460,5760,460C5640,460,5520,460,5400,460C5280,460,5160,460,5040,460C4920,460,4800,460,4680,460C4560,460,4440,460,4320,460C4200,460,4080,460,3960,460C3840,460,3720,460,3600,460C3480,460,3360,460,3240,460C3120,460,3000,460,2880,460C2760,460,2640,460,2520,460C2400,460,2280,460,2160,460C2040,460,1920,460,1800,460C1680,460,1560,460,1440,460C1320,460,1200,460,1080,460C960,460,840,460,720,460C600,460,480,460,360,460C240,460,120,460,60,460L0,460Z"/></svg>